<svg id="Layer_1" data-name="Layer 1" xmlns="http://www.w3.org/2000/svg" viewBox="0 0 263.1 263.1"><defs><style>.cls-1{fill:none;stroke:#b561aa;stroke-miterlimit:10;stroke-width:6px;}</style></defs><title>Untitled-1</title><path class="cls-1" d="M265.21,149.29a40.15,40.15,0,0,0-26.36-70.43c-5.94,0-17,4.52-29.77,11.29,6.8-12.85,11.35-23.93,11.35-29.89A40.15,40.15,0,0,0,150,33.9,40.15,40.15,0,0,0,79.57,60.26c0,5.86,4.4,16.66,11,29.23C78.31,83.1,67.8,78.86,62.06,78.86a40.15,40.15,0,0,0-26.36,70.43,40.15,40.15,0,0,0,26.36,70.43c5.6,0,15.74-4,27.61-10.16-6.1,11.82-10.1,21.91-10.1,27.49A40.15,40.15,0,0,0,150,263.41,40.15,40.15,0,0,0,220.43,237c0-5.68-4.15-16-10.43-28.13,12.41,6.49,23.05,10.81,28.85,10.81A40.15,40.15,0,0,0,265.21,149.29Z" transform="translate(-18.9 -17.1)"/><rect class="cls-1" x="111.6" y="113.4" width="39" height="39"/></svg>